<?xml version="1.0" encoding="UTF-8"?>
<svg width="60px" height="60px" viewBox="0 0 60 60" version="1.1" xmlns="http://www.w3.org/2000/svg" xmlns:xlink="http://www.w3.org/1999/xlink">
    <!-- Generator: Sketch 42 (36781) - http://www.bohemiancoding.com/sketch -->
    <title>Codeopen_Black</title>
    <desc>Created with Sketch.</desc>
    <defs></defs>
    <g id="Page-1" stroke="none" stroke-width="1" fill="none" fill-rule="evenodd" opacity="0.5">
        <g id="Social_icons_black" transform="translate(-260.000000, -469.000000)" fill="#000000">
            <g id="Black" transform="translate(60.000000, 169.000000)">
                <g id="Codeopen" transform="translate(200.000000, 300.000000)">
                    <path d="M0,30 C0,13.4314567 13.4314567,0 30,0 C46.5685433,0 60,13.4314567 60,30 C60,46.5685433 46.5685433,60 30,60 C13.4314567,60 0,46.5685433 0,30 Z M45.9544687,25.4344063 C45.9225,25.3365625 45.9118437,25.3045938 45.89925,25.272625 C45.8556562,25.1767187 45.841125,25.1476562 45.8236875,25.1195625 C45.7684688,25.0294688 45.7500625,25.0023437 45.7297187,24.9761875 C45.662875,24.8938437 45.6405938,24.869625 45.6173438,24.846375 C45.5398437,24.77275 45.5146563,24.7514375 45.4894688,24.7310937 C45.4216563,24.6807187 45.414875,24.6739375 45.407125,24.6690937 L31.2391562,15.2237812 C30.7915937,14.9254063 30.209375,14.9254063 29.7608437,15.2237812 L15.5938437,24.6690937 C15.55025,24.7000937 15.530875,24.7155937 15.5115,24.7310937 C15.4853437,24.7514375 15.4601563,24.77275 15.4359375,24.7950312 C15.3594062,24.869625 15.337125,24.8938437 15.3167812,24.9190312 C15.2509063,25.0023437 15.2325,25.0294688 15.2150625,25.0575625 C15.1598438,25.1476562 15.1453125,25.1767187 15.1307812,25.2077187 C15.0881563,25.3045938 15.0775,25.3365625 15.0668438,25.3695 C15.0368125,25.47025 15.0300313,25.5080312 15.02325,25.5458125 C15.0048437,25.660125 15,25.71825 15,25.7773438 L15,35.2226562 C15,35.2807813 15.0048437,35.3389063 15.0125937,35.3970313 C15.0300313,35.4919687 15.0368125,35.5287812 15.0465,35.5655937 C15.0775,35.6624688 15.0881563,35.6954062 15.1017188,35.7283437 C15.1453125,35.8223125 15.1598438,35.851375 15.1763125,35.8814063 C15.2325,35.9705312 15.2509063,35.9966875 15.2702812,36.0228437 C15.337125,36.1051875 15.3594062,36.130375 15.3826562,36.1526562 C15.4601563,36.22725 15.4853437,36.2485625 15.5115,36.2689062 C15.5793125,36.3192813 15.5860938,36.3260625 15.5938437,36.3309063 L29.7608437,45.7762188 C29.984625,45.9254063 30.2423125,46 30.5,46 C30.7576875,46 31.015375,45.9254063 31.2391562,45.7762188 L45.407125,36.3309063 C45.44975,36.2999062 45.469125,36.2844063 45.4894688,36.2689062 C45.5146563,36.2485625 45.5398437,36.22725 45.5650312,36.2049688 C45.6405938,36.130375 45.662875,36.1051875 45.6841875,36.0809687 C45.7500625,35.9966875 45.7684688,35.9705312 45.7859062,35.9424375 C45.841125,35.851375 45.8556562,35.8223125 45.8692187,35.7922812 C45.9118437,35.6954062 45.9225,35.6624688 45.9331562,35.6305 C45.9641563,35.5287812 45.9709375,35.4919687 45.9777188,35.4541875 C45.996125,35.3389063 46,35.2807813 46,35.2226562 L46,25.7773438 C46,25.71825 45.996125,25.660125 45.988375,25.6039375 C45.9709375,25.5080312 45.9641563,25.47025 45.9544687,25.4344063 Z" id="Combined-Shape"></path>
                    <path d="M30.5,33.6513437 L25.7889688,30.5 L30.5,27.3486562 L35.212,30.5 L30.5,33.6513437 Z M31.8320312,18.8217187 L42.2693438,25.7792813 L37.6077187,28.8976875 L31.8320312,25.0343125 L31.8320312,18.8217187 Z M31.8320312,42.1782813 L31.8320312,35.9656875 L37.6077187,32.1032813 L42.2693438,35.2207188 L31.8320312,42.1782813 Z M43.3359375,32.7290938 L40.0034375,30.5 L43.3359375,28.2709063 L43.3359375,32.7290938 Z M29.1679687,42.1782813 L18.7306562,35.2207188 L23.39325,32.1032813 L29.1679687,35.9656875 L29.1679687,42.1782813 Z M17.6640625,28.2709063 L20.9975312,30.5 L17.6640625,32.7290938 L17.6640625,28.2709063 Z M29.1679687,18.8217187 L29.1679687,25.0343125 L23.39325,28.8976875 L18.7306562,25.7792813 L29.1679687,18.8217187 Z" id="Combined-Shape"></path>
                </g>
            </g>
        </g>
    </g>
</svg>