<?xml version="1.0" encoding="UTF-8"?>
<svg width="60px" height="60px" viewBox="0 0 60 60" version="1.1" xmlns="http://www.w3.org/2000/svg" xmlns:xlink="http://www.w3.org/1999/xlink">
    <!-- Generator: Sketch 42 (36781) - http://www.bohemiancoding.com/sketch -->
    <title>Spotify_Black</title>
    <desc>Created with Sketch.</desc>
    <defs></defs>
    <g id="Page-1" stroke="none" stroke-width="1" fill="none" fill-rule="evenodd" opacity="0.5">
        <g id="Social_icons_black" transform="translate(-160.000000, -569.000000)" fill="#000000">
            <g id="Black" transform="translate(60.000000, 169.000000)">
                <g id="Spotify" transform="translate(100.000000, 400.000000)">
                    <path d="M47.7457952,26.595497 C38.0755521,20.8526035 22.1247022,20.3245625 12.8932992,23.1263322 C11.4105572,23.5762776 9.84291318,22.7394365 9.39404252,21.2570528 C8.94481363,19.7735944 9.78057999,18.207025 11.2640384,17.7563632 C21.8613982,14.5397553 39.4773326,15.1609379 50.6098981,21.7693314 C51.9436135,22.5610346 52.3806624,24.2830787 51.5903921,25.6142865 C50.7994053,26.9476437 49.0759283,27.3872002 47.7457952,26.595497 M47.4291139,35.1014706 C46.7506135,36.2023321 45.3112182,36.5476724 44.2117896,35.8716796 C36.1500296,30.9161905 23.8560605,29.4803776 14.3180068,32.3756471 C13.0813735,32.749288 11.774884,32.0521593 11.3990937,30.8173172 C11.0265274,29.5806839 11.7240144,28.2767021 12.9588565,27.9005535 C23.8546275,24.5940282 37.3999176,26.1953465 46.6596213,31.8859374 C47.75905,32.5630049 48.1051067,34.0031167 47.4291139,35.1014706 M43.7582618,43.2703434 C43.2191155,44.1544717 42.0681008,44.4313887 41.1871966,43.8926006 C34.1424708,39.586953 25.2753945,38.6146985 14.832793,40.9998388 C13.8265059,41.2305433 12.823443,40.6000466 12.5941715,39.5941178 C12.363467,38.5878307 12.9918143,37.5847678 14.0002508,37.355138 C25.4280034,34.7428756 35.2304358,35.8670225 43.1377958,40.6989199 C44.0194164,41.2373498 44.2970499,42.3890809 43.7582618,43.2703434 M29.9998209,9.9475983e-14 C13.431729,9.9475983e-14 0,13.4313708 0,29.9994626 C0,46.5693457 13.431729,60 29.9998209,60 C46.5686292,60 60,46.5693457 60,29.9994626 C60,13.4313708 46.5686292,9.9475983e-14 29.9998209,9.9475983e-14" id="Spotify-Copy"></path>
                </g>
            </g>
        </g>
    </g>
</svg>